REM DIRINDEX 1\2,1\3,1\4
REM DIRNAME folder01,folder02,folder03,folder04
TITLE ""
FILE "DISC1Track18.mp3" MP3
  TRACK 01 AUDIO
    TITLE "0:"
    INDEX 01 00:00:00
  TRACK 02 AUDIO
    TITLE "4:cjc105_1468"
    INDEX 01 00:00:15
  TRACK 03 AUDIO
    TITLE "0:"
    INDEX 01 00:02:47
  TRACK 04 AUDIO
    TITLE "2:cjc105_1469"
    INDEX 01 00:03:19
  TRACK 05 AUDIO
    TITLE "3:cjc105_1470"
    INDEX 01 00:05:09
  TRACK 06 AUDIO
    TITLE "0:"
    INDEX 01 00:06:49
  TRACK 07 AUDIO
    TITLE "2:cjc105_1471"
    INDEX 01 00:06:61
  TRACK 08 AUDIO
    TITLE "3:cjc105_1472"
    INDEX 01 00:08:13
  TRACK 09 AUDIO
    TITLE "0:"
    INDEX 01 00:09:20
  TRACK 10 AUDIO
    TITLE "2:cjc105_1473"
    INDEX 01 00:09:32
  TRACK 11 AUDIO
    TITLE "3:cjc105_1474"
    INDEX 01 00:10:33
  TRACK 12 AUDIO
    TITLE "0:"
    INDEX 01 00:11:35
  TRACK 13 AUDIO
    TITLE "2:cjc105_1475"
    INDEX 01 00:11:54
  TRACK 14 AUDIO
    TITLE "3:cjc105_1476"
    INDEX 01 00:13:12
  TRACK 15 AUDIO
    TITLE "0:"
    INDEX 01 00:14:49
  TRACK 16 AUDIO
    TITLE "2:cjc105_1477"
    INDEX 01 00:14:68
  TRACK 17 AUDIO
    TITLE "3:cjc105_1478"
    INDEX 01 00:16:22
  TRACK 18 AUDIO
    TITLE "0:"
    INDEX 01 00:17:47
  TRACK 19 AUDIO
    TITLE "2:cjc105_1479"
    INDEX 01 00:17:63
  TRACK 20 AUDIO
    TITLE "3:cjc105_1480"
    INDEX 01 00:18:62
  TRACK 21 AUDIO
    TITLE "0:"
    INDEX 01 00:20:08
  TRACK 22 AUDIO
    TITLE "2:cjc105_1481"
    INDEX 01 00:20:26
  TRACK 23 AUDIO
    TITLE "3:cjc105_1482"
    INDEX 01 00:21:31
  TRACK 24 AUDIO
    TITLE "0:"
    INDEX 01 00:22:68
  TRACK 25 AUDIO
    TITLE "2:cjc105_1483"
    INDEX 01 00:23:08
  TRACK 26 AUDIO
    TITLE "3:cjc105_1484"
    INDEX 01 00:24:33
  TRACK 27 AUDIO
    TITLE "0:"
    INDEX 01 00:25:58
  TRACK 28 AUDIO
    TITLE "2:cjc105_1485"
    INDEX 01 00:25:70
  TRACK 29 AUDIO
    TITLE "3:cjc105_1486"
    INDEX 01 00:27:36
  TRACK 30 AUDIO
    TITLE "0:"
    INDEX 01 00:28:72
  TRACK 31 AUDIO
    TITLE "2:cjc105_1487"
    INDEX 01 00:29:09
  TRACK 32 AUDIO
    TITLE "3:cjc105_1488"
    INDEX 01 00:30:48
  TRACK 33 AUDIO
    TITLE "0:"
    INDEX 01 00:32:31
  TRACK 34 AUDIO
    TITLE "2:cjc105_1489"
    INDEX 01 00:32:43
  TRACK 35 AUDIO
    TITLE "3:cjc105_1490"
    INDEX 01 00:34:47
  TRACK 36 AUDIO
    TITLE "0:"
    INDEX 01 00:36:38
  TRACK 37 AUDIO
    TITLE "2:cjc105_1491"
    INDEX 01 00:36:56
  TRACK 38 AUDIO
    TITLE "3:cjc105_1492"
    INDEX 01 00:38:22
  TRACK 39 AUDIO
    TITLE "0:"
    INDEX 01 00:39:58
  TRACK 40 AUDIO
    TITLE "2:cjc105_1493"
    INDEX 01 00:39:68
  TRACK 41 AUDIO
    TITLE "3:cjc105_1494"
    INDEX 01 00:41:30
  TRACK 42 AUDIO
    TITLE "0:"
    INDEX 01 00:42:55
  TRACK 43 AUDIO
    TITLE "2:cjc105_1495"
    INDEX 01 00:42:74
  TRACK 44 AUDIO
    TITLE "3:cjc105_1496"
    INDEX 01 00:44:40
  TRACK 45 AUDIO
    TITLE "0:"
    INDEX 01 00:45:45
  TRACK 46 AUDIO
    TITLE "2:cjc105_1497"
    INDEX 01 00:45:61
  TRACK 47 AUDIO
    TITLE "3:cjc105_1498"
    INDEX 01 00:47:48
  TRACK 48 AUDIO
    TITLE "0:"
    INDEX 01 00:49:27
  TRACK 49 AUDIO
    TITLE "2:cjc105_1499"
    INDEX 01 00:49:37
  TRACK 50 AUDIO
    TITLE "3:cjc105_1500"
    INDEX 01 00:50:42
  TRACK 51 AUDIO
    TITLE "0:"
    INDEX 01 00:51:58
  TRACK 52 AUDIO
    TITLE "2:cjc105_1501"
    INDEX 01 00:52:00
  TRACK 53 AUDIO
    TITLE "3:cjc105_1502"
    INDEX 01 00:53:31
  TRACK 54 AUDIO
    TITLE "0:"
    INDEX 01 00:54:62
  TRACK 55 AUDIO
    TITLE "2:cjc105_1503"
    INDEX 01 00:55:04
  TRACK 56 AUDIO
    TITLE "3:cjc105_1504"
    INDEX 01 00:56:12
  TRACK 57 AUDIO
    TITLE "0:"
    INDEX 01 00:57:35
  TRACK 58 AUDIO
    TITLE "2:cjc105_1505"
    INDEX 01 00:57:48
  TRACK 59 AUDIO
    TITLE "3:cjc105_1506"
    INDEX 01 00:58:71
  TRACK 60 AUDIO
    TITLE "0:"
    INDEX 01 00:59:73
  TRACK 61 AUDIO
    TITLE "2:cjc105_1507"
    INDEX 01 01:00:10
  TRACK 62 AUDIO
    TITLE "3:cjc105_1508"
    INDEX 01 01:02:12
  TRACK 63 AUDIO
    TITLE "0:"
    INDEX 01 01:03:49
  TRACK 64 AUDIO
    TITLE "2:cjc105_1509"
    INDEX 01 01:03:59
  TRACK 65 AUDIO
    TITLE "3:cjc105_1510"
    INDEX 01 01:05:13
  TRACK 66 AUDIO
    TITLE "0:"
    INDEX 01 01:07:06
  TRACK 67 AUDIO
    TITLE "2:cjc105_1511"
    INDEX 01 01:07:19
  TRACK 68 AUDIO
    TITLE "3:cjc105_1512"
    INDEX 01 01:08:29
  TRACK 69 AUDIO
    TITLE "0:"
    INDEX 01 01:09:38
  TRACK 70 AUDIO
    TITLE "2:cjc105_1513"
    INDEX 01 01:09:50
  TRACK 71 AUDIO
    TITLE "3:cjc105_1514"
    INDEX 01 01:10:59
  TRACK 72 AUDIO
    TITLE "0:"
    INDEX 01 01:11:70
  TRACK 73 AUDIO
    TITLE "2:cjc105_1515"
    INDEX 01 01:12:07
  TRACK 74 AUDIO
    TITLE "3:cjc105_1516"
    INDEX 01 01:13:34
  TRACK 75 AUDIO
    TITLE "0:"
    INDEX 01 01:14:74
  TRACK 76 AUDIO
    TITLE "2:cjc105_1517"
    INDEX 01 01:15:11
  TRACK 77 AUDIO
    TITLE "3:cjc105_1518"
    INDEX 01 01:16:48
  TRACK 78 AUDIO
    TITLE "0:"
    INDEX 01 01:17:65
  TRACK 79 AUDIO
    TITLE "2:cjc105_1519"
    INDEX 01 01:18:00
  TRACK 80 AUDIO
    TITLE "3:cjc105_1520"
    INDEX 01 01:19:21
  TRACK 81 AUDIO
    TITLE "0:"
    INDEX 01 01:21:25
  TRACK 82 AUDIO
    TITLE "2:cjc105_1521"
    INDEX 01 01:21:41
  TRACK 83 AUDIO
    TITLE "3:cjc105_1522"
    INDEX 01 01:23:01
  TRACK 84 AUDIO
    TITLE "0:"
    INDEX 01 01:24:63
  TRACK 85 AUDIO
    TITLE "2:cjc105_1523"
    INDEX 01 01:25:04
  TRACK 86 AUDIO
    TITLE "3:cjc105_1524"
    INDEX 01 01:26:30
  TRACK 87 AUDIO
    TITLE "0:"
    INDEX 01 01:28:12
  TRACK 88 AUDIO
    TITLE "2:cjc105_1525"
    INDEX 01 01:28:27
  TRACK 89 AUDIO
    TITLE "3:cjc105_1526"
    INDEX 01 01:29:52
  TRACK 90 AUDIO
    TITLE "0:"
    INDEX 01 01:31:41
  TRACK 91 AUDIO
    TITLE "2:cjc105_1527"
    INDEX 01 01:31:49
  TRACK 92 AUDIO
    TITLE "3:cjc105_1528"
    INDEX 01 01:33:05
  TRACK 93 AUDIO
    TITLE "0:"
    INDEX 01 01:34:50
  TRACK 94 AUDIO
    TITLE "2:cjc105_1529"
    INDEX 01 01:34:63
  TRACK 95 AUDIO
    TITLE "3:cjc105_1530"
    INDEX 01 01:37:07
  TRACK 96 AUDIO
    TITLE "0:"
    INDEX 01 01:38:73
  TRACK 97 AUDIO
    TITLE "2:cjc105_1531"
    INDEX 01 01:39:12
  TRACK 98 AUDIO
    TITLE "3:cjc105_1532"
    INDEX 01 01:40:25
  TRACK 99 AUDIO
    TITLE "0:"
    INDEX 01 01:42:14
  TRACK 100 AUDIO
    TITLE "2:cjc105_1533"
    INDEX 01 01:42:28
  TRACK 101 AUDIO
    TITLE "3:cjc105_1534"
    INDEX 01 01:44:23
  TRACK 102 AUDIO
    TITLE "0:"
    INDEX 01 01:46:25
  TRACK 103 AUDIO
    TITLE "2:cjc105_1535"
    INDEX 01 01:46:37
  TRACK 104 AUDIO
    TITLE "3:cjc105_1536"
    INDEX 01 01:48:12
  TRACK 105 AUDIO
    TITLE "0:"
    INDEX 01 01:49:73
  TRACK 106 AUDIO
    TITLE "2:cjc105_1537"
    INDEX 01 01:50:15
  TRACK 107 AUDIO
    TITLE "3:cjc105_1538"
    INDEX 01 01:51:50
  TRACK 108 AUDIO
    TITLE "0:"
    INDEX 01 01:53:47
  TRACK 109 AUDIO
    TITLE "2:cjc105_1539"
    INDEX 01 01:53:57
  TRACK 110 AUDIO
    TITLE "3:cjc105_1540"
    INDEX 01 01:55:13
  TRACK 111 AUDIO
    TITLE "0:"
    INDEX 01 01:56:69
  TRACK 112 AUDIO
    TITLE "2:cjc105_1541"
    INDEX 01 01:57:08
  TRACK 113 AUDIO
    TITLE "3:cjc105_1542"
    INDEX 01 01:58:44
  TRACK 114 AUDIO
    TITLE "0:"
    INDEX 01 02:00:29
  TRACK 115 AUDIO
    TITLE "2:cjc105_1543"
    INDEX 01 02:00:43
  TRACK 116 AUDIO
    TITLE "3:cjc105_1544"
    INDEX 01 02:01:60
  TRACK 117 AUDIO
    TITLE "0:"
    INDEX 01 02:03:02
  TRACK 118 AUDIO
    TITLE "2:cjc105_1545"
    INDEX 01 02:03:14
  TRACK 119 AUDIO
    TITLE "3:cjc105_1546"
    INDEX 01 02:04:41
  TRACK 120 AUDIO
    TITLE "0:"
    INDEX 01 02:05:52
  TRACK 121 AUDIO
    TITLE "2:cjc105_1547"
    INDEX 01 02:05:62
  TRACK 122 AUDIO
    TITLE "3:cjc105_1548"
    INDEX 01 02:07:41
  TRACK 123 AUDIO
    TITLE "0:"
    INDEX 01 02:09:19
  TRACK 124 AUDIO
    TITLE "2:cjc105_1549"
    INDEX 01 02:09:36
  TRACK 125 AUDIO
    TITLE "3:cjc105_1550"
    INDEX 01 02:11:31
  TRACK 126 AUDIO
    TITLE "0:"
    INDEX 01 02:13:48
  TRACK 127 AUDIO
    TITLE "2:cjc105_1551"
    INDEX 01 02:13:65
  TRACK 128 AUDIO
    TITLE "3:cjc105_1552"
    INDEX 01 02:15:37
  TRACK 129 AUDIO
    TITLE "0:"
    INDEX 01 02:16:66
  TRACK 130 AUDIO
    TITLE "2:cjc105_1553"
    INDEX 01 02:17:08
  TRACK 131 AUDIO
    TITLE "3:cjc105_1554"
    INDEX 01 02:18:55
  TRACK 132 AUDIO
    TITLE "0:"
    INDEX 01 02:20:24
  TRACK 133 AUDIO
    TITLE "2:cjc105_1555"
    INDEX 01 02:20:38
  TRACK 134 AUDIO
    TITLE "3:cjc105_1556"
    INDEX 01 02:21:37
  TRACK 135 AUDIO
    TITLE "0:"
    INDEX 01 02:22:45
  TRACK 136 AUDIO
    TITLE "2:cjc105_1557"
    INDEX 01 02:22:56
  TRACK 137 AUDIO
    TITLE "3:cjc105_1558"
    INDEX 01 02:23:56
  TRACK 138 AUDIO
    TITLE "0:"
    INDEX 01 02:24:57
  TRACK 139 AUDIO
    TITLE "2:cjc105_1559"
    INDEX 01 02:24:67
  TRACK 140 AUDIO
    TITLE "3:cjc105_1560"
    INDEX 01 02:26:29
  TRACK 141 AUDIO
    TITLE "0:"
    INDEX 01 02:28:12
  TRACK 142 AUDIO
    TITLE "2:cjc105_1561"
    INDEX 01 02:28:28
  TRACK 143 AUDIO
    TITLE "3:cjc105_1562"
    INDEX 01 02:29:53
  TRACK 144 AUDIO
    TITLE "0:"
    INDEX 01 02:32:33
  TRACK 145 AUDIO
    TITLE "2:cjc105_1563"
    INDEX 01 02:32:47
  TRACK 146 AUDIO
    TITLE "3:cjc105_1564"
    INDEX 01 02:33:62
  TRACK 147 AUDIO
    TITLE "0:"
    INDEX 01 02:36:53
  TRACK 148 AUDIO
    TITLE "2:cjc105_1565"
    INDEX 01 02:36:64
  TRACK 149 AUDIO
    TITLE "3:cjc105_1566"
    INDEX 01 02:37:58
  TRACK 150 AUDIO
    TITLE "0:"
    INDEX 01 02:39:73
  TRACK 151 AUDIO
    TITLE "2:cjc105_1567"
    INDEX 01 02:40:11
  TRACK 152 AUDIO
    TITLE "3:cjc105_1568"
    INDEX 01 02:42:10
  TRACK 153 AUDIO
    TITLE "0:"
    INDEX 01 02:44:19
  TRACK 154 AUDIO
    TITLE "2:cjc105_1569"
    INDEX 01 02:44:35
  TRACK 155 AUDIO
    TITLE "3:cjc105_1570"
    INDEX 01 02:46:39
  TRACK 156 AUDIO
    TITLE "0:"
    INDEX 01 02:48:48
  TRACK 157 AUDIO
    TITLE "2:cjc105_1571"
    INDEX 01 02:48:58
  TRACK 158 AUDIO
    TITLE "3:cjc105_1572"
    INDEX 01 02:50:43
  TRACK 159 AUDIO
    TITLE "0:"
    INDEX 01 02:52:28
